#tb 0: 1/25
#media_type 0: video
#codec_id 0: rawvideo
#dimensions 0: 416x240
#sar 0: 0/1
0,          0,          0,        1,   299520, 0x66b3cef3
0,          1,          1,        1,   299520, 0x99df880f
0,          2,          2,        1,   299520, 0xb4a03801
0,          3,          3,        1,   299520, 0x1510c9e2
0,          4,          4,        1,   299520, 0x42fe77b1
0,          5,          5,        1,   299520, 0x815e1727
0,          6,          6,        1,   299520, 0x6dd002f4
0,          7,          7,        1,   299520, 0x2650e944
0,          8,          8,        1,   299520, 0x3268c1e9
0,          9,          9,        1,   299520, 0xced41a5f
0,         10,         10,        1,   299520, 0x91334b97
0,         11,         11,        1,   299520, 0xc5bb7ff6
0,         12,         12,        1,   299520, 0x26e27c35
0,         13,         13,        1,   299520, 0x482da6cb
0,         14,         14,        1,   299520, 0xfe742e8e
0,         15,         15,        1,   299520, 0x3f395752
0,         16,         16,        1,   299520, 0x189936e5
0,         17,         17,        1,   299520, 0x56a58a07
0,         18,         18,        1,   299520, 0x798d8de9
0,         19,         19,        1,   299520, 0x5d8e947f
0,         20,         20,        1,   299520, 0x65477654
0,         21,         21,        1,   299520, 0x5012d167
0,         22,         22,        1,   299520, 0xe889bb27
0,         23,         23,        1,   299520, 0x4611c1e6
0,         24,         24,        1,   299520, 0xb093402b
0,         25,         25,        1,   299520, 0xddc065d8
0,         26,         26,        1,   299520, 0x6986e1d9
0,         27,         27,        1,   299520, 0x0e539004
0,         28,         28,        1,   299520, 0x4768f9ed
0,         29,         29,        1,   299520, 0xfad20b53
0,         30,         30,        1,   299520, 0x82f9c996
0,         31,         31,        1,   299520, 0x6b366d79
0,         32,         32,        1,   299520, 0x5a35d42e
0,         33,         33,        1,   299520, 0xf3849013
0,         34,         34,        1,   299520, 0x6b8eae50
0,         35,         35,        1,   299520, 0x0f854274
0,         36,         36,        1,   299520, 0x31685299
0,         37,         37,        1,   299520, 0x77357bfb
0,         38,         38,        1,   299520, 0xd67f1807
0,         39,         39,        1,   299520, 0x371e7eb6
0,         40,         40,        1,   299520, 0xe2ee3531
0,         41,         41,        1,   299520, 0x50f242f1
0,         42,         42,        1,   299520, 0x265ed919
0,         43,         43,        1,   299520, 0xad496c85
0,         44,         44,        1,   299520, 0xb2aef047
0,         45,         45,        1,   299520, 0xac5c4451
0,         46,         46,        1,   299520, 0x2b26a0cb
0,         47,         47,        1,   299520, 0x5738d837
